<svg width="31" height="29" viewBox="0 0 31 29" fill="none" xmlns="http://www.w3.org/2000/svg">
<path fill-rule="evenodd" clip-rule="evenodd" d="M0 0H31V29H0V0Z" fill="white"/>
<path fill-rule="evenodd" clip-rule="evenodd" d="M1.36418 26.7346H1.27556C1.27556 26.6933 1.25337 26.631 1.25337 26.6101C1.25337 26.5894 1.25337 26.5481 1.18679 26.5481H1.05363V26.7346H0.987044V26.2989H1.18679C1.27556 26.2989 1.34198 26.3198 1.34198 26.4026C1.34198 26.4649 1.31979 26.4858 1.29776 26.5062C1.31995 26.5272 1.34198 26.5479 1.34198 26.5894V26.6723C1.34198 26.6933 1.34198 26.6932 1.36418 26.6932V26.7346ZM1.27556 26.4235C1.27556 26.3612 1.23118 26.3612 1.20898 26.3612H1.05363V26.4858H1.18679C1.23118 26.4858 1.27556 26.4649 1.27556 26.4235V26.4235ZM1.6527 26.5064C1.6527 26.2575 1.43092 26.0498 1.1424 26.0498C0.876235 26.0498 0.654297 26.2575 0.654297 26.5064C0.654297 26.7761 0.876235 26.9839 1.1424 26.9839C1.43076 26.9838 1.6527 26.7761 1.6527 26.5064ZM1.58612 26.5064C1.58612 26.7348 1.38653 26.9007 1.1424 26.9007C0.898268 26.9007 0.720878 26.7346 0.720878 26.5064C0.720878 26.2989 0.898429 26.1121 1.1424 26.1121C1.38637 26.1121 1.58612 26.2989 1.58612 26.5064ZM28.919 18.1217C28.919 18.7444 28.4975 19.0346 27.743 19.0346H26.3012V18.4119H27.743C27.8762 18.4119 27.9872 18.3913 28.0317 18.3499C28.0759 18.3083 28.1203 18.246 28.1203 18.1631C28.1203 18.0799 28.0761 17.997 28.0317 17.9556C27.9872 17.9139 27.8985 17.8933 27.7654 17.8933C27.0779 17.8724 26.2125 17.9139 26.2125 17.0009C26.2125 16.5856 26.5008 16.129 27.2773 16.129H28.7636V16.7517H27.3881C27.2552 16.7517 27.1663 16.7517 27.0997 16.7931C27.0331 16.8554 26.9889 16.9177 26.9889 17.0215C26.9889 17.1253 27.0555 17.1876 27.1441 17.2292C27.233 17.2499 27.3218 17.2706 27.4328 17.2706H27.832C28.2535 17.2706 28.5198 17.3535 28.6974 17.499C28.8302 17.6442 28.919 17.8312 28.919 18.1217V18.1217ZM25.7908 17.499C25.6132 17.3535 25.3469 17.2706 24.9254 17.2706H24.5262C24.4154 17.2706 24.3265 17.2497 24.2378 17.2292C24.1489 17.1876 24.0826 17.1253 24.0826 17.0215C24.0826 16.9177 24.1047 16.8554 24.1935 16.7931C24.26 16.7517 24.3487 16.7517 24.4818 16.7517H25.8574V16.129H24.371C23.5722 16.129 23.3059 16.5856 23.3059 17.0009C23.3059 17.9138 24.1713 17.8724 24.8591 17.8933C24.992 17.8933 25.0809 17.9139 25.1251 17.9556C25.1693 17.997 25.2141 18.0799 25.2141 18.1631C25.2141 18.246 25.1695 18.3083 25.1251 18.3499C25.0585 18.3913 24.9699 18.4119 24.8368 18.4119H23.3946V19.0346H24.8368C25.5909 19.0346 26.0125 18.7443 26.0125 18.1217C26.0125 17.8312 25.9239 17.6442 25.7908 17.499V17.499ZM22.9509 18.433H21.1986V17.8518H22.9067V17.2709H21.1986V16.7311H22.9509V16.1293H20.4663V19.0348H22.9509V18.433ZM19.6675 16.2746C19.4234 16.1501 19.135 16.1292 18.7579 16.1292H17.0498V19.0346H17.8039V17.9762H18.6027C18.8687 17.9762 19.0242 17.9971 19.1352 18.1008C19.2684 18.246 19.2683 18.4951 19.2683 18.682V19.0346H20.0003V18.4742C20.0003 18.2045 19.9782 18.0799 19.8895 17.9347C19.8229 17.8515 19.69 17.7478 19.5125 17.6856C19.7119 17.6236 20.045 17.3744 20.045 16.9177C20.0448 16.5858 19.9117 16.3989 19.6675 16.2746V16.2746ZM15.4523 16.1292H13.0784L12.1243 17.0839L11.2147 16.1292H8.21967V19.0346H11.1705L12.1245 18.0799L13.0341 19.0346H14.4762V18.0594H15.4081C16.0514 18.0594 16.695 17.8933 16.695 17.0839C16.6948 16.2953 16.0292 16.1292 15.4523 16.1292ZM19.0684 17.333C18.9576 17.3744 18.8467 17.3744 18.7135 17.3744L17.8039 17.3953V16.731H18.7135C18.8467 16.731 18.9798 16.731 19.0684 16.7932C19.1574 16.8349 19.2236 16.9178 19.2236 17.0424C19.2236 17.167 19.1574 17.2708 19.0684 17.333V17.333ZM15.4523 17.4782H14.4761V16.731H15.4523C15.7186 16.731 15.896 16.8349 15.896 17.0839C15.896 17.3331 15.7185 17.4782 15.4523 17.4782ZM12.5903 17.5819L13.7438 16.4406V18.7858L12.5903 17.5819ZM10.7932 18.433H8.95174V17.8518H10.5934V17.2709H8.95174V16.7311H10.8154L11.6362 17.582L10.7932 18.433V18.433ZM26.8556 14.0329H25.7908L24.393 11.8537V14.0329H22.8847L22.596 13.3895H21.0431L20.7547 14.0329H19.8893C19.5344 14.0329 19.0684 13.9499 18.8024 13.7008C18.5583 13.4518 18.4251 13.1197 18.4251 12.6008C18.4251 12.165 18.4917 11.7706 18.8243 11.4594C19.0461 11.231 19.4456 11.1273 19.9557 11.1273H20.6656V11.75H19.9557C19.6897 11.75 19.5342 11.7916 19.379 11.9161C19.2458 12.0407 19.1793 12.2689 19.1793 12.5802C19.1793 12.8915 19.2458 13.1199 19.379 13.2652C19.4898 13.3689 19.6897 13.4104 19.8891 13.4104H20.222L21.2869 11.1275H22.3962L23.6386 13.867V11.1273H24.7924L26.1013 13.1405V11.1273H26.8554V14.0329H26.8556V14.0329ZM18.048 11.1273H17.2939V14.0329H18.048V11.1273V11.1273ZM16.4727 11.2519C16.2286 11.1273 15.9626 11.1273 15.5855 11.1273H13.877V14.0329H14.6091V12.9744H15.4077C15.6741 12.9744 15.8516 12.9951 15.9624 13.099C16.0956 13.2443 16.0732 13.4934 16.0732 13.6594V14.0329H16.8273V13.4518C16.8273 13.2028 16.8053 13.0782 16.6945 12.9329C16.6279 12.8498 16.4948 12.746 16.3396 12.6839C16.539 12.6008 16.8721 12.3726 16.8721 11.916C16.8722 11.5839 16.7167 11.3971 16.4727 11.2519ZM13.3445 13.4311H11.614V12.85H13.3223V12.2482H11.614V11.7293H13.3445V11.1275H10.8598V14.0331H13.3445V13.4311ZM10.3051 11.1273H9.08491L8.17528 13.099L7.19907 11.1273H6.00109V13.8668L4.73652 11.1273H3.62731L2.29616 14.0329H3.09482L3.38318 13.3895H4.9361L5.22446 14.0329H6.73316V11.75L7.82018 14.0329H8.46348L9.55066 11.75V14.0329H10.3049V11.1273H10.3051ZM22.33 12.7669L21.8195 11.6255L21.3094 12.7669H22.33ZM15.896 12.3105C15.7852 12.3727 15.6742 12.3727 15.5189 12.3727H14.6091V11.7294H15.5187C15.6519 11.7294 15.8069 11.7294 15.8958 11.7709C15.9845 11.8332 16.029 11.9163 16.029 12.0407C16.029 12.1651 15.9846 12.2688 15.896 12.3105V12.3105ZM3.64934 12.7669L4.15964 11.6255L4.66994 12.7669H3.64934V12.7669ZM28.7416 2.01611H2.27381V12.4764L3.18343 10.5463H5.11349L5.37982 11.0237V10.5463H7.64279L8.15309 11.5839L8.64119 10.5463H15.8516C16.1842 10.5463 16.4726 10.6086 16.6947 10.7745V10.5463H18.6691V10.7745C19.0017 10.6084 19.4232 10.5463 19.9115 10.5463H22.7734L23.0397 11.0237V10.5463H25.1473L25.458 11.0237V10.5463H27.5211V14.6141H25.4358L25.0367 13.9916V14.6141H22.4408L22.1524 13.95H21.5088L21.2204 14.6141H19.8673C19.3348 14.6141 18.9353 14.4896 18.6693 14.3651V14.6141H15.4523V13.6801C15.4523 13.5556 15.4301 13.5348 15.3413 13.5348H15.2305V14.614H9.01833V14.0951L8.79655 14.614H7.48759L7.26582 14.1158V14.614H4.75871L4.49255 13.9499H3.84909L3.56073 14.614H2.27381V26.88H28.7416V19.429C28.4532 19.5535 28.0537 19.6158 27.6544 19.6158H25.7242V19.3667C25.5024 19.5329 25.1029 19.6158 24.7259 19.6158H18.6469V18.682C18.6469 18.5574 18.6249 18.5574 18.5138 18.5574H18.403V19.6158H16.4061V18.5159C16.0736 18.6611 15.6963 18.6611 15.3635 18.6611H15.1416V19.6158H12.7012L12.1245 18.9931L11.4812 19.6158H7.55401V15.5481H11.5475L12.1243 16.1705L12.7456 15.5481H15.4301C15.7405 15.5481 16.251 15.5895 16.4727 15.797V15.5481H18.8687C19.1128 15.5481 19.5789 15.5895 19.8893 15.797V15.5481H23.5056V15.7971C23.7054 15.631 24.0826 15.5483 24.4152 15.5483H26.4341V15.7971C26.6562 15.6519 26.9666 15.5483 27.3661 15.5483H28.7416V2.01611V2.01611Z" fill="#3980C1"/>
</svg>
